<svg xmlns="http://www.w3.org/2000/svg" viewBox="0 0 533.44 236.9"><defs><style>.cls-1{fill:none;stroke:#fff;stroke-miterlimit:10;stroke-width:2px;}</style></defs><title>wave</title><g id="Layer_2" data-name="Layer 2"><g id="Layer_1-2" data-name="Layer 1"><path class="cls-1" d="M.61,82.35c75.71-59,118.92-70.47,141.48-59.52,25.87,12.55,36.79,27.12,71.43,45.9,31.3,17,57.61,39.11,88.73,21.8C337,71.2,363.47,51.88,384.95,32.35c52.38-47.62,115.29-40.5,147.62,18"/><path class="cls-1" d="M.61,146.64c75.71-59,117.57-76.16,140.13-65.21,25.87,12.55,42.89,46.43,77.54,65.21,31.3,17,70.52,13.66,101.64-3.64,34.77-19.34,57.33-44.08,82.7-58.18,23.14-12.87,97.62-37.11,130,21.35"/><path class="cls-1" d="M.61,184.73c75.71-59,117.57-76.16,140.13-65.21,25.87,12.55,42.89,46.43,77.54,65.21,31.3,17,70.52,13.66,101.64-3.64,34.77-19.34,57.33-44.08,82.7-58.18,23.14-12.87,97.62-37.11,130,21.35"/><path class="cls-1" d="M.61,224.73c75.71-59,117.57-76.16,140.13-65.21,25.87,12.55,42.89,46.43,77.54,65.21,31.3,17,70.52,13.66,101.64-3.64,34.77-19.34,57.33-44.08,82.7-58.18,23.14-12.87,97.62-37.11,130,21.35"/></g></g></svg>